<?xml version="1.0" encoding="UTF-8"?>
<svg width="20px" height="25px" viewBox="0 0 20 25" version="1.1" xmlns="http://www.w3.org/2000/svg" xmlns:xlink="http://www.w3.org/1999/xlink">
    <!-- Generator: Sketch 50 (54983) - http://www.bohemiancoding.com/sketch -->
    <title>ic_列表地点</title>
    <desc>Created with Sketch.</desc>
    <defs></defs>
    <g id="Page-1" stroke="none" stroke-width="1" fill="none" fill-rule="evenodd" opacity="0.8">
        <g id="首页" transform="translate(-155.000000, -729.000000)" fill="#B8C0CC">
            <g id="card1" transform="translate(0.000000, 591.000000)">
                <g id="Group-3" transform="translate(152.000000, 136.000000)">
                    <g id="ic_地点" transform="translate(0.000000, 1.000000)">
                        <g id="Group-36" transform="translate(3.000000, 1.000000)">
                            <path d="M10,25 C8.4771525,25 0,15.5228475 0,10 C0,4.4771525 4.4771525,0 10,0 C15.5228475,0 20,4.4771525 20,10 C20,15.5228475 11.5228475,25 10,25 Z M10,14 C12.209139,14 14,12.209139 14,10 C14,7.790861 12.209139,6 10,6 C7.790861,6 6,7.790861 6,10 C6,12.209139 7.790861,14 10,14 Z" id="ic_列表地点"></path>
                        </g>
                    </g>
                </g>
            </g>
        </g>
    </g>
</svg>