<?xml version="1.0" encoding="UTF-8"?>
<svg width="28px" height="32px" viewBox="0 0 28 32" version="1.1" xmlns="http://www.w3.org/2000/svg" xmlns:xlink="http://www.w3.org/1999/xlink">
    <!-- Generator: Sketch 50 (54983) - http://www.bohemiancoding.com/sketch -->
    <title>ic_删除</title>
    <desc>Created with Sketch.</desc>
    <defs></defs>
    <g id="Page-1" stroke="none" stroke-width="1" fill="none" fill-rule="evenodd">
        <g id="二级搜索页" transform="translate(-694.000000, -263.000000)" fill="#B8C0CC" fill-rule="nonzero">
            <g id="Group-14" transform="translate(0.000000, 232.000000)">
                <g id="ic_删除" transform="translate(690.000000, 29.000000)">
                    <path d="M12,6 L24,6 L24,4 L12,4 L12,6 Z M10,6 L10,3 C10,2.44771525 10.4477153,2 11,2 L25,2 C25.5522847,2 26,2.44771525 26,3 L26,6 L31,6 C31.5522847,6 32,6.44771525 32,7 C32,7.55228475 31.5522847,8 31,8 L5,8 C4.44771525,8 4,7.55228475 4,7 C4,6.44771525 4.44771525,6 5,6 L10,6 Z M28,32 L28,11 C28,10.4477153 28.4477153,10 29,10 C29.5522847,10 30,10.4477153 30,11 L30,33 C30,33.5522847 29.5522847,34 29,34 L7,34 C6.44771525,34 6,33.5522847 6,33 L6,11 C6,10.4477153 6.44771525,10 7,10 C7.55228475,10 8,10.4477153 8,11 L8,32 L28,32 Z M14,14 C14.5522847,14 15,14.4477153 15,15 L15,27 C15,27.5522847 14.5522847,28 14,28 C13.4477153,28 13,27.5522847 13,27 L13,15 C13,14.4477153 13.4477153,14 14,14 Z M22,14 C22.5522847,14 23,14.4477153 23,15 L23,27 C23,27.5522847 22.5522847,28 22,28 C21.4477153,28 21,27.5522847 21,27 L21,15 C21,14.4477153 21.4477153,14 22,14 Z"></path>
                </g>
            </g>
        </g>
    </g>
</svg>