<?xml version="1.0" encoding="UTF-8"?>
<svg width="24px" height="34px" viewBox="0 0 24 34" version="1.1" xmlns="http://www.w3.org/2000/svg" xmlns:xlink="http://www.w3.org/1999/xlink">
    <!-- Generator: Sketch 50 (54983) - http://www.bohemiancoding.com/sketch -->
    <title>ic_地点</title>
    <desc>Created with Sketch.</desc>
    <defs></defs>
    <g id="Page-1" stroke="none" stroke-width="1" fill="none" fill-rule="evenodd">
        <g id="首页" transform="translate(-29.000000, -162.000000)" fill="#FFFFFF">
            <g id="筛选栏" transform="translate(0.000000, 128.000000)">
                <g id="位置" transform="translate(24.000000, 34.000000)">
                    <g id="ic_地点">
                        <path d="M17,34 C14.372583,34 5,18.627417 5,12 C5,5.372583 10.372583,0 17,0 C23.627417,0 29,5.372583 29,12 C29,18.627417 19.627417,34 17,34 Z M17,17 C19.7614237,17 22,14.7614237 22,12 C22,9.23857625 19.7614237,7 17,7 C14.2385763,7 12,9.23857625 12,12 C12,14.7614237 14.2385763,17 17,17 Z"></path>
                    </g>
                </g>
            </g>
        </g>
    </g>
</svg>